<?xml version="1.0" encoding="UTF-8" standalone="no"?>
<!-- Created with Inkscape (http://www.inkscape.org/) -->

<svg
   version="1.1"
   id="svg4010"
   width="512"
   height="511.99997"
   viewBox="0 0 512 511.99999"
   xmlns:xlink="http://www.w3.org/1999/xlink"
   xmlns="http://www.w3.org/2000/svg"
   xmlns:svg="http://www.w3.org/2000/svg"
   xmlns:rdf="http://www.w3.org/1999/02/22-rdf-syntax-ns#"
   xmlns:cc="http://creativecommons.org/ns#"
   xmlns:dc="http://purl.org/dc/elements/1.1/">
  <metadata
     id="metadata4016">
    <rdf:RDF>
      <cc:Work
         rdf:about="">
        <dc:format>image/svg+xml</dc:format>
        <dc:type
           rdf:resource="http://purl.org/dc/dcmitype/StillImage" />
        <dc:title />
      </cc:Work>
    </rdf:RDF>
  </metadata>
  <defs
     id="defs4014" />
  <g
     id="layer4"
     style="display:inline">
    <circle
       style="fill:#fde047;fill-opacity:1;fill-rule:nonzero;stroke:none;stroke-width:14;stroke-linecap:round;stroke-linejoin:round;stroke-miterlimit:4;stroke-dasharray:none;stroke-dashoffset:0;stroke-opacity:1;paint-order:stroke markers fill"
       id="path4310"
       cx="256"
       cy="256"
       r="256" />
  </g>
  <g
     id="layer2"
     transform="translate(14.377869,32.386496)">
    <path
       style="fill:none;stroke:#212121;stroke-width:16;stroke-linecap:round;stroke-linejoin:round;stroke-miterlimit:4;stroke-dasharray:none;stroke-opacity:1"
       d="m 166.94188,336.76171 c 0,0 8.62924,-97.73244 8.79113,-154.23023 0.0786,-27.4212 -14.0458,-72.81826 -37.41756,-72.6603 -34.72157,0.23467 -57.344278,30.83467 -70.540823,59.77553 -13.196546,28.94085 -17.96282,42.67579 -14.166336,79.97763 2.264817,22.25265 21.650182,34.94794 39.706534,37.5157 31.111585,4.42433 64.556895,-12.29177 84.308665,-35.56583 33.44632,-39.41073 46.34649,-119.15632 46.34649,-119.15632 -4.00498,80.17321 -9.42501,204.34382 -9.42501,204.34382 0,0 -2.327,-70.36039 6.51326,-133.26428 6.64178,-47.26031 4.03146,-90.71714 32.20798,-93.62625 15.07241,-1.55617 54.65981,20.28672 60.00738,59.38821 6.39246,46.74179 -16.04985,113.43995 -66.64841,117.88065 -26.62344,2.33656 -45.33513,-20.76819 -45.33513,-20.76819"
       id="path4035" />
    <path
       style="fill:none;stroke:#212121;stroke-width:16;stroke-linecap:round;stroke-linejoin:round;stroke-miterlimit:4;stroke-dasharray:none;stroke-opacity:1"
       d="m 344.33706,133.125 c -2.08709,42.10553 -4.98705,92.47068 -14.0509,204.34382 0,0 5.61614,-117.5638 13.6275,-174.65443 3.42858,-24.43272 11.65828,-57.38467 35.07404,-52.2361 55.54596,12.21324 73.92436,154.39238 17.62031,175.17926 -20.14682,7.438 -60.65921,-1.07257 -60.21326,-6.1086 0.45616,-5.15133 14.18018,-3.14033 19.10618,-2.19902 30.9896,5.92179 46.41878,31.41046 53.32426,60.01889"
       id="path4012" />
  </g>
</svg>
